<?xml version="1.0" standalone="no"?>
<!DOCTYPE svg PUBLIC "-//W3C//DTD SVG 20010904//EN"
 "http://www.w3.org/TR/2001/REC-SVG-20010904/DTD/svg10.dtd">
<svg version="1.0" xmlns="http://www.w3.org/2000/svg"
 width="284.000000pt" height="271.000000pt" viewBox="0 0 284.000000 271.000000"
 preserveAspectRatio="xMidYMid meet">

<g transform="translate(0.000000,271.000000) scale(0.100000,-0.100000)"
fill="#000000" stroke="none">
<path d="M0 1355 l0 -1355 1420 0 1420 0 0 1355 0 1355 -1420 0 -1420 0 0
-1355z m1463 755 c130 -21 235 -100 291 -220 86 -182 18 -390 -164 -501 -69
-42 -116 -49 -349 -49 l-226 0 72 43 73 43 -28 21 c-40 30 -89 119 -108 195
-51 205 83 418 291 463 75 17 78 17 148 5z m-973 -1095 l0 -125 80 0 80 0 0
125 0 125 35 0 35 0 0 -280 0 -280 -35 0 -35 0 0 120 0 120 -80 0 -80 0 0
-120 0 -120 -30 0 -30 0 0 280 0 280 30 0 30 0 0 -125z m517 99 c55 -40 63
-73 63 -249 0 -136 -3 -166 -20 -202 -29 -65 -67 -83 -172 -83 l-88 0 0 281 0
281 95 -4 c75 -3 101 -8 122 -24z m373 -9 l0 -35 -55 0 -55 0 0 -245 0 -245
-30 0 -30 0 0 245 0 245 -55 0 -55 0 0 35 0 35 140 0 140 0 0 -35z m330 0 l0
-35 -105 0 -105 0 0 -85 0 -84 103 -3 102 -3 0 -30 0 -30 -102 -3 -103 -3 0
-89 0 -90 110 0 110 0 0 -35 0 -35 -140 0 -140 0 0 280 0 280 135 0 135 0 0
-35z m258 10 c22 -18 34 -40 41 -76 18 -84 15 -99 -18 -99 -27 0 -29 2 -33 54
-6 68 -20 86 -69 86 -72 0 -84 -39 -77 -265 5 -165 9 -175 73 -175 54 0 67 16
73 86 4 52 5 54 35 54 l30 0 -6 -59 c-4 -32 -11 -70 -16 -84 -21 -55 -107 -81
-173 -54 -60 25 -71 59 -76 232 -8 265 17 323 140 324 36 1 53 -5 76 -24z
m182 -100 l0 -125 80 0 80 0 0 125 0 125 35 0 35 0 0 -280 0 -280 -35 0 -35 0
0 120 0 120 -80 0 -80 0 0 -120 0 -120 -30 0 -30 0 0 280 0 280 30 0 30 0 0
-125z"/>
<path d="M1289 2065 c-155 -57 -249 -200 -237 -363 7 -95 38 -160 109 -228 33
-31 59 -57 57 -58 -2 -1 -19 -12 -38 -25 l-35 -22 165 4 c141 4 174 8 224 27
79 30 166 118 196 198 26 67 30 176 10 237 -32 100 -125 194 -229 230 -53 18
-172 19 -222 0z m-4 -215 c3 -6 -19 -36 -49 -68 l-55 -58 54 -54 c37 -37 52
-57 45 -64 -7 -7 -32 11 -77 56 l-66 66 63 66 c64 67 74 74 85 56z m185 1 c0
-8 -109 -252 -116 -260 -3 -3 -9 0 -14 5 -14 14 98 264 117 264 7 0 13 -4 13
-9z m127 -53 c35 -34 63 -67 63 -72 0 -15 -112 -126 -127 -126 -25 0 -12 25
39 77 l52 53 -57 58 c-49 50 -61 72 -38 72 3 0 34 -28 68 -62z"/>
<path d="M850 860 l0 -211 56 3 c49 3 60 7 78 31 19 26 21 42 21 177 0 135 -2
151 -21 177 -18 24 -29 28 -78 31 l-56 3 0 -211z"/>
</g>
</svg>
